<svg version="1.1" id="Layer_1" xmlns="http://www.w3.org/2000/svg" xmlns:xlink="http://www.w3.org/1999/xlink" x="0px" y="0px" viewBox="0 0 205.31 246.03" style="enable-background:new 0 0 205.31 246.03;" xml:space="preserve">
<style type="text/css">
	.st0{fill:#C5C5C5;}
	.st1{fill:#FF0000;}
	.st2{fill:#ECECEC;}
	.st3{fill:#222221;}
</style>
<rect x="59.01" y="58.86" transform="matrix(0.7071 -0.7071 0.7071 0.7071 -25.8111 62.5359)" class="st0" width="7.14" height="7.14"></rect>
<rect x="69.11" y="68.95" transform="matrix(0.7071 -0.7071 0.7071 0.7071 -29.9912 72.6279)" class="st0" width="7.14" height="7.14"></rect>
<rect x="59.01" y="68.95" transform="matrix(0.7071 -0.7071 0.7071 0.7071 -32.9472 65.4912)" class="st0" width="7.14" height="7.14"></rect>
<rect x="48.92" y="58.86" transform="matrix(0.7071 -0.7071 0.7071 0.7071 -28.767 55.3998)" class="st0" width="7.14" height="7.14"></rect>
<rect x="38.83" y="58.86" transform="matrix(0.7071 -0.7071 0.7071 0.7071 -31.7225 48.2646)" class="st0" width="7.14" height="7.14"></rect>
<rect x="48.92" y="68.95" transform="matrix(0.7072 -0.707 0.707 0.7072 -35.9014 58.3472)" class="st0" width="7.14" height="7.14"></rect>
<rect x="59.01" y="79.04" transform="matrix(0.7071 -0.7071 0.7071 0.7071 -40.0831 68.4476)" class="st0" width="7.14" height="7.14"></rect>
<rect x="48.92" y="79.04" transform="matrix(0.7071 -0.7071 0.7071 0.7071 -43.0389 61.3114)" class="st0" width="7.14" height="7.14"></rect>
<rect x="38.83" y="58.86" transform="matrix(0.7071 -0.7071 0.7071 0.7071 -31.7225 48.2643)" class="st0" width="7.14" height="7.14"></rect>
<rect x="28.74" y="58.86" transform="matrix(0.7071 -0.7071 0.7071 0.7071 -34.6783 41.1284)" class="st1" width="7.14" height="7.14"></rect>
<rect x="18.65" y="58.86" transform="matrix(0.7071 -0.7071 0.7071 0.7071 -37.6341 33.9926)" class="st0" width="7.14" height="7.14"></rect>
<rect x="28.74" y="68.95" transform="matrix(0.7071 -0.7071 0.7071 0.7071 -41.8143 44.0845)" class="st1" width="7.14" height="7.14"></rect>
<rect x="38.83" y="68.95" transform="matrix(0.7071 -0.7071 0.7071 0.7071 -38.8584 51.2205)" class="st0" width="7.14" height="7.14"></rect>
<rect x="48.92" y="89.13" transform="matrix(0.7072 -0.707 0.707 0.7072 -50.172 64.2575)" class="st0" width="7.14" height="7.14"></rect>
<rect x="38.83" y="79.04" transform="matrix(0.7071 -0.7071 0.7071 0.7071 -45.9945 54.1759)" class="st0" width="7.14" height="7.14"></rect>
<rect x="28.74" y="79.04" transform="matrix(0.7071 -0.7071 0.7071 0.7071 -48.9502 47.04)" class="st1" width="7.14" height="7.14"></rect>
<rect x="18.65" y="68.95" transform="matrix(0.7071 -0.7071 0.7071 0.7071 -44.7701 36.9482)" class="st0" width="7.14" height="7.14"></rect>
<rect x="18.65" y="79.04" transform="matrix(0.7071 -0.7071 0.7071 0.7071 -51.9061 39.9043)" class="st0" width="7.14" height="7.14"></rect>
<rect x="28.74" y="89.13" transform="matrix(0.7071 -0.7071 0.7071 0.7071 -56.0863 49.9961)" class="st1" width="7.14" height="7.14"></rect>
<rect x="38.83" y="89.13" transform="matrix(0.7071 -0.7071 0.7071 0.7071 -53.1304 57.1321)" class="st0" width="7.14" height="7.14"></rect>
<rect x="28.74" y="99.22" transform="matrix(0.7071 -0.7071 0.7071 0.7071 -63.2222 52.9516)" class="st1" width="7.14" height="7.14"></rect>
<rect x="18.65" y="89.13" transform="matrix(0.7071 -0.7071 0.7071 0.7071 -59.042 42.8598)" class="st0" width="7.14" height="7.14"></rect>
<rect x="18.65" y="99.22" transform="matrix(0.7071 -0.7071 0.7071 0.7071 -66.1781 45.816)" class="st0" width="7.14" height="7.14"></rect>
<rect x="28.74" y="109.31" transform="matrix(0.7071 -0.7071 0.7071 0.7071 -70.3577 55.9076)" class="st1" width="7.14" height="7.14"></rect>
<rect x="18.65" y="109.32" transform="matrix(0.707 -0.7072 0.7072 0.707 -73.3198 48.7807)" class="st0" width="7.14" height="7.14"></rect>
<rect x="18.65" y="119.41" transform="matrix(0.7071 -0.7071 0.7071 0.7071 -80.4493 51.7273)" class="st0" width="7.14" height="7.14"></rect>
<rect x="79.2" y="68.95" transform="matrix(0.7071 -0.7071 0.7071 0.7071 -27.0354 79.7639)" class="st1" width="7.14" height="7.14"></rect>
<rect x="89.29" y="89.13" transform="matrix(0.7071 -0.7071 0.7071 0.7071 -38.3516 92.8116)" class="st0" width="7.14" height="7.14"></rect>
<rect x="99.38" y="99.22" transform="matrix(0.7071 -0.7071 0.7071 0.7071 -42.5317 102.9034)" class="st0" width="7.14" height="7.14"></rect>
<rect x="99.38" y="109.32" transform="matrix(0.707 -0.7072 0.7072 0.707 -49.668 105.8734)" class="st0" width="7.14" height="7.14"></rect>
<rect x="89.29" y="99.22" transform="matrix(0.7071 -0.7071 0.7071 0.7071 -45.4877 95.7666)" class="st0" width="7.14" height="7.14"></rect>
<rect x="79.2" y="79.04" transform="matrix(0.7071 -0.7071 0.7071 0.7071 -34.1716 82.7191)" class="st1" width="7.14" height="7.14"></rect>
<rect x="69.11" y="79.04" transform="matrix(0.7071 -0.7071 0.7071 0.7071 -37.1273 75.5831)" class="st0" width="7.14" height="7.14"></rect>
<rect x="69.11" y="89.13" transform="matrix(0.7071 -0.7071 0.7071 0.7071 -44.2632 78.5396)" class="st0" width="7.14" height="7.14"></rect>
<rect x="79.2" y="89.13" transform="matrix(0.7071 -0.7071 0.7071 0.7071 -41.3074 85.6756)" class="st1" width="7.14" height="7.14"></rect>
<rect x="89.29" y="109.31" transform="matrix(0.7071 -0.7071 0.7071 0.7071 -52.623 98.723)" class="st0" width="7.14" height="7.14"></rect>
<rect x="99.38" y="119.41" transform="matrix(0.7071 -0.7071 0.7071 0.7071 -56.803 108.8148)" class="st1" width="7.14" height="7.14"></rect>
<rect x="99.38" y="129.5" transform="matrix(0.7071 -0.7071 0.7071 0.7071 -63.939 111.7697)" class="st0" width="7.14" height="7.14"></rect>
<rect x="89.29" y="119.41" transform="matrix(0.7071 -0.7071 0.7071 0.7071 -59.7589 101.6779)" class="st1" width="7.14" height="7.14"></rect>
<rect x="79.2" y="99.22" transform="matrix(0.7071 -0.7071 0.7071 0.7071 -48.4435 88.6307)" class="st1" width="7.14" height="7.14"></rect>
<rect x="69.11" y="99.22" transform="matrix(0.7071 -0.7071 0.7071 0.7071 -51.3993 81.4947)" class="st0" width="7.14" height="7.14"></rect>
<rect x="59.01" y="89.13" transform="matrix(0.7071 -0.7071 0.7071 0.7071 -47.2191 71.4028)" class="st0" width="7.14" height="7.14"></rect>
<rect x="59.01" y="99.22" transform="matrix(0.7071 -0.7071 0.7071 0.7071 -54.355 74.3592)" class="st0" width="7.14" height="7.14"></rect>
<rect x="69.11" y="109.31" transform="matrix(0.7071 -0.7071 0.7071 0.7071 -58.5347 84.451)" class="st0" width="7.14" height="7.14"></rect>
<rect x="79.2" y="109.31" transform="matrix(0.7071 -0.7071 0.7071 0.7071 -55.5789 91.587)" class="st1" width="7.14" height="7.14"></rect>
<rect x="89.29" y="129.5" transform="matrix(0.7071 -0.7071 0.7071 0.7071 -66.8949 104.6346)" class="st0" width="7.14" height="7.14"></rect>
<rect x="99.38" y="129.5" transform="matrix(0.7071 -0.7071 0.7071 0.7071 -63.939 111.7706)" class="st0" width="7.14" height="7.14"></rect>
<rect x="99.38" y="149.68" transform="matrix(0.7071 -0.7071 0.7071 0.7071 -78.211 117.6813)" class="st0" width="7.14" height="7.14"></rect>
<rect x="89.29" y="129.5" transform="matrix(0.7071 -0.7071 0.7071 0.7071 -66.8948 104.6337)" class="st0" width="7.14" height="7.14"></rect>
<rect x="79.2" y="119.41" transform="matrix(0.7071 -0.7071 0.7071 0.7071 -62.7147 94.542)" class="st1" width="7.14" height="7.14"></rect>
<rect x="69.11" y="119.41" transform="matrix(0.7071 -0.7071 0.7071 0.7071 -65.6705 87.406)" class="st0" width="7.14" height="7.14"></rect>
<rect x="59.01" y="109.32" transform="matrix(0.707 -0.7072 0.7072 0.707 -61.494 77.3265)" class="st0" width="7.14" height="7.14"></rect>
<rect x="48.92" y="99.22" transform="matrix(0.7071 -0.7071 0.7071 0.7071 -57.3108 67.223)" class="st0" width="7.14" height="7.14"></rect>
<rect x="48.92" y="109.32" transform="matrix(0.7072 -0.707 0.707 0.7072 -64.4421 70.1675)" class="st0" width="7.14" height="7.14"></rect>
<rect x="59.01" y="119.41" transform="matrix(0.7071 -0.7071 0.7071 0.7071 -68.6263 80.2706)" class="st1" width="7.14" height="7.14"></rect>
<rect x="69.11" y="129.5" transform="matrix(0.7071 -0.7071 0.7071 0.7071 -72.8065 90.3626)" class="st0" width="7.14" height="7.14"></rect>
<rect x="79.2" y="129.5" transform="matrix(0.7071 -0.7071 0.7071 0.7071 -69.8507 97.4986)" class="st0" width="7.14" height="7.14"></rect>
<rect x="89.29" y="149.68" transform="matrix(0.7071 -0.7071 0.7071 0.7071 -81.1669 110.5463)" class="st0" width="7.14" height="7.14"></rect>
<rect x="79.2" y="149.68" transform="matrix(0.7071 -0.7071 0.7071 0.7071 -84.1226 103.4094)" class="st0" width="7.14" height="7.14"></rect>
<rect x="69.11" y="139.59" transform="matrix(0.7071 -0.7071 0.7071 0.7071 -79.9424 93.3176)" class="st0" width="7.14" height="7.14"></rect>
<rect x="59.01" y="129.5" transform="matrix(0.7071 -0.7071 0.7071 0.7071 -75.7621 83.2256)" class="st0" width="7.14" height="7.14"></rect>
<rect x="48.92" y="119.41" transform="matrix(0.7071 -0.7071 0.7071 0.7071 -71.582 73.1343)" class="st1" width="7.14" height="7.14"></rect>
<rect x="38.83" y="99.22" transform="matrix(0.7071 -0.7071 0.7071 0.7071 -60.2664 60.0875)" class="st0" width="7.14" height="7.14"></rect>
<rect x="38.83" y="109.31" transform="matrix(0.7071 -0.7071 0.7071 0.7071 -67.4019 63.0435)" class="st0" width="7.14" height="7.14"></rect>
<rect x="48.92" y="129.5" transform="matrix(0.7072 -0.707 0.707 0.7072 -78.7125 76.0777)" class="st0" width="7.14" height="7.14"></rect>
<rect x="59.01" y="129.5" transform="matrix(0.7071 -0.7071 0.7071 0.7071 -75.7623 83.2264)" class="st0" width="7.14" height="7.14"></rect>
<rect x="69.11" y="149.68" transform="matrix(0.7071 -0.7071 0.7071 0.7071 -87.0786 96.2743)" class="st0" width="7.14" height="7.14"></rect>
<rect x="59.01" y="149.68" transform="matrix(0.7071 -0.7071 0.7071 0.7071 -90.0341 89.1372)" class="st0" width="7.14" height="7.14"></rect>
<rect x="48.92" y="129.5" transform="matrix(0.7071 -0.7071 0.7071 0.7071 -78.7179 76.0901)" class="st0" width="7.14" height="7.14"></rect>
<rect x="38.83" y="119.41" transform="matrix(0.7071 -0.7071 0.7071 0.7071 -74.5376 65.9988)" class="st1" width="7.14" height="7.14"></rect>
<rect x="28.74" y="119.41" transform="matrix(0.7071 -0.7071 0.7071 0.7071 -77.4934 58.8629)" class="st1" width="7.14" height="7.14"></rect>
<rect x="28.74" y="129.5" transform="matrix(0.7071 -0.7071 0.7071 0.7071 -84.6295 61.8192)" class="st0" width="7.14" height="7.14"></rect>
<rect x="38.83" y="129.5" transform="matrix(0.7071 -0.7071 0.7071 0.7071 -81.6737 68.9551)" class="st0" width="7.14" height="7.14"></rect>
<rect x="48.92" y="149.68" transform="matrix(0.7072 -0.707 0.707 0.7072 -92.983 81.988)" class="st0" width="7.14" height="7.14"></rect>
<rect x="38.83" y="149.68" transform="matrix(0.7071 -0.7071 0.7071 0.7071 -95.9455 74.8662)" class="st0" width="7.14" height="7.14"></rect>
<rect x="28.74" y="139.59" transform="matrix(0.7071 -0.7071 0.7071 0.7071 -91.7653 64.7745)" class="st0" width="7.14" height="7.14"></rect>
<rect x="38.83" y="139.59" transform="matrix(0.7071 -0.7071 0.7071 0.7071 -88.8095 71.9104)" class="st0" width="7.14" height="7.14"></rect>
<rect x="48.92" y="139.59" transform="matrix(0.7071 -0.7071 0.7071 0.7071 -85.8539 79.0459)" class="st0" width="7.14" height="7.14"></rect>
<rect x="59.01" y="139.59" transform="matrix(0.7071 -0.7071 0.7071 0.7071 -82.8981 86.1814)" class="st0" width="7.14" height="7.14"></rect>
<rect x="79.2" y="139.59" transform="matrix(0.7071 -0.7071 0.7071 0.7071 -76.9866 100.4536)" class="st0" width="7.14" height="7.14"></rect>
<rect x="89.29" y="139.59" transform="matrix(0.7071 -0.7071 0.7071 0.7071 -74.0308 107.5895)" class="st0" width="7.14" height="7.14"></rect>
<rect x="99.38" y="139.59" transform="matrix(0.7071 -0.7071 0.7071 0.7071 -71.075 114.7255)" class="st0" width="7.14" height="7.14"></rect>
<rect x="18.65" y="129.5" transform="matrix(0.7071 -0.7071 0.7071 0.7071 -87.5851 54.6827)" class="st0" width="7.14" height="7.14"></rect>
<rect x="18.65" y="139.59" transform="matrix(0.7071 -0.7071 0.7071 0.7071 -94.7213 57.639)" class="st0" width="7.14" height="7.14"></rect>
<rect x="28.74" y="149.68" transform="matrix(0.7071 -0.7071 0.7071 0.7071 -98.9015 67.7308)" class="st0" width="7.14" height="7.14"></rect>
<rect x="79.2" y="58.86" transform="matrix(0.7071 -0.7071 0.7071 0.7071 -19.8994 76.808)" class="st0" width="7.14" height="7.14"></rect>
<rect x="69.11" y="58.86" transform="matrix(0.7071 -0.7071 0.7071 0.7071 -22.8554 69.6715)" class="st0" width="7.14" height="7.14"></rect>
<rect x="99.38" y="58.86" transform="matrix(0.7071 -0.7071 0.7071 0.7071 -13.9877 91.08)" class="st0" width="7.14" height="7.14"></rect>
<polyline class="st2" points="102.95,57.38 107.99,62.42 102.95,67.47 "></polyline>
<rect x="89.29" y="58.86" transform="matrix(0.7071 -0.7071 0.7071 0.7071 -16.9438 83.9434)" class="st0" width="7.14" height="7.14"></rect>
<rect x="59.01" y="48.77" transform="matrix(0.7071 -0.7071 0.7071 0.7071 -18.6753 59.5801)" class="st0" width="7.14" height="7.14"></rect>
<rect x="48.92" y="48.77" transform="matrix(0.707 -0.7072 0.7072 0.707 -21.6311 52.4514)" class="st0" width="7.14" height="7.14"></rect>
<rect x="38.83" y="48.77" transform="matrix(0.7071 -0.7071 0.7071 0.7071 -24.5866 45.3089)" class="st0" width="7.14" height="7.14"></rect>
<rect x="28.74" y="48.77" transform="matrix(0.707 -0.7072 0.7072 0.707 -27.5439 38.1786)" class="st1" width="7.14" height="7.14"></rect>
<rect x="18.65" y="48.77" transform="matrix(0.7071 -0.7071 0.7071 0.7071 -30.4983 31.0369)" class="st0" width="7.14" height="7.14"></rect>
<rect x="79.2" y="48.77" transform="matrix(0.7071 -0.7071 0.7071 0.7071 -12.7636 73.8523)" class="st1" width="7.14" height="7.14"></rect>
<rect x="69.11" y="48.77" transform="matrix(0.707 -0.7072 0.7072 0.707 -15.7182 66.7246)" class="st0" width="7.14" height="7.14"></rect>
<rect x="99.38" y="48.77" transform="matrix(0.7071 -0.7071 0.7071 0.7071 -6.8519 88.1243)" class="st1" width="7.14" height="7.14"></rect>
<rect x="89.29" y="48.77" transform="matrix(0.707 -0.7072 0.7072 0.707 -9.8052 80.9979)" class="st1" width="7.14" height="7.14"></rect>
<rect x="59.01" y="38.67" transform="matrix(0.7071 -0.7071 0.7071 0.7071 -11.5398 56.6245)" class="st0" width="7.14" height="7.14"></rect>
<rect x="48.92" y="38.67" transform="matrix(0.7071 -0.7071 0.7071 0.7071 -14.4957 49.4885)" class="st0" width="7.14" height="7.14"></rect>
<rect x="38.83" y="38.67" transform="matrix(0.7071 -0.7071 0.7071 0.7071 -17.4512 42.3532)" class="st0" width="7.14" height="7.14"></rect>
<rect x="28.74" y="38.67" transform="matrix(0.7071 -0.7071 0.7071 0.7071 -20.4071 35.2171)" class="st0" width="7.14" height="7.14"></rect>
<rect x="18.65" y="38.67" transform="matrix(0.7071 -0.7071 0.7071 0.7071 -23.3628 28.0813)" class="st0" width="7.14" height="7.14"></rect>
<rect x="18.65" y="28.58" transform="matrix(0.7071 -0.7071 0.7071 0.7071 -16.2268 25.1254)" class="st0" width="7.14" height="7.14"></rect>
<rect x="18.65" y="18.49" transform="matrix(0.7071 -0.7071 0.7071 0.7071 -9.0908 22.1697)" class="st0" width="7.14" height="7.14"></rect>
<rect x="28.74" y="28.58" transform="matrix(0.7071 -0.7071 0.7071 0.7071 -13.271 32.2614)" class="st0" width="7.14" height="7.14"></rect>
<rect x="28.74" y="18.49" transform="matrix(0.7071 -0.7071 0.7071 0.7071 -6.135 29.3057)" class="st0" width="7.14" height="7.14"></rect>
<rect x="79.2" y="38.67" transform="matrix(0.7071 -0.7071 0.7071 0.7071 -5.6281 70.8966)" class="st0" width="7.14" height="7.14"></rect>
<rect x="69.11" y="38.67" transform="matrix(0.7071 -0.7071 0.7071 0.7071 -8.5842 63.7602)" class="st0" width="7.14" height="7.14"></rect>
<rect x="99.38" y="38.67" transform="matrix(0.7071 -0.7071 0.7071 0.7071 0.2836 85.1686)" class="st0" width="7.14" height="7.14"></rect>
<rect x="89.29" y="38.67" transform="matrix(0.7071 -0.7071 0.7071 0.7071 -2.6726 78.0321)" class="st0" width="7.14" height="7.14"></rect>
<rect x="59.01" y="28.58" transform="matrix(0.7071 -0.7071 0.7071 0.7071 -4.4038 53.6687)" class="st0" width="7.14" height="7.14"></rect>
<rect x="48.92" y="28.58" transform="matrix(0.7071 -0.7071 0.7071 0.7071 -7.3598 46.5327)" class="st0" width="7.14" height="7.14"></rect>
<rect x="38.83" y="28.58" transform="matrix(0.7071 -0.7071 0.7071 0.7071 -10.3152 39.3974)" class="st0" width="7.14" height="7.14"></rect>
<rect x="48.92" y="18.49" transform="matrix(0.7071 -0.7071 0.7071 0.7071 -0.2238 43.5769)" class="st0" width="7.14" height="7.14"></rect>
<rect x="38.83" y="18.49" transform="matrix(0.7071 -0.7071 0.7071 0.7071 -3.1791 36.4417)" class="st0" width="7.14" height="7.14"></rect>
<rect x="79.2" y="28.58" transform="matrix(0.7071 -0.7071 0.7071 0.7071 1.5079 67.9408)" class="st0" width="7.14" height="7.14"></rect>
<rect x="69.11" y="28.58" transform="matrix(0.7071 -0.7071 0.7071 0.7071 -1.4482 60.8044)" class="st0" width="7.14" height="7.14"></rect>
<rect x="99.38" y="28.58" transform="matrix(0.7071 -0.7071 0.7071 0.7071 7.4196 82.2128)" class="st0" width="7.14" height="7.14"></rect>
<rect x="89.29" y="28.58" transform="matrix(0.7071 -0.7071 0.7071 0.7071 4.4634 75.0763)" class="st0" width="7.14" height="7.14"></rect>
<rect x="79.2" y="18.49" transform="matrix(0.7071 -0.7071 0.7071 0.7071 8.644 64.9852)" class="st0" width="7.14" height="7.14"></rect>
<rect x="69.11" y="18.49" transform="matrix(0.7071 -0.7071 0.7071 0.7071 5.6877 57.8486)" class="st0" width="7.14" height="7.14"></rect>
<rect x="99.38" y="18.49" transform="matrix(0.7071 -0.7071 0.7071 0.7071 14.5558 79.2572)" class="st0" width="7.14" height="7.14"></rect>
<rect x="89.29" y="18.49" transform="matrix(0.7071 -0.7071 0.7071 0.7071 11.5993 72.1205)" class="st0" width="7.14" height="7.14"></rect>
<rect x="89.29" y="58.86" transform="matrix(0.7071 -0.7071 0.7071 0.7071 -16.9436 83.944)" class="st0" width="7.14" height="7.14"></rect>
<rect x="99.38" y="79.04" transform="matrix(0.7071 -0.7071 0.7071 0.7071 -28.2597 96.9917)" class="st0" width="7.14" height="7.14"></rect>
<rect x="99.38" y="89.13" transform="matrix(0.7071 -0.7071 0.7071 0.7071 -35.3959 99.9468)" class="st0" width="7.14" height="7.14"></rect>
<rect x="89.29" y="79.04" transform="matrix(0.7071 -0.7071 0.7071 0.7071 -31.2158 89.855)" class="st0" width="7.14" height="7.14"></rect>
<rect x="99.38" y="68.95" transform="matrix(0.7071 -0.7071 0.7071 0.7071 -21.1237 94.0359)" class="st0" width="7.14" height="7.14"></rect>
<rect x="89.29" y="68.95" transform="matrix(0.7071 -0.7071 0.7071 0.7071 -24.0798 86.8992)" class="st0" width="7.14" height="7.14"></rect>
<rect x="79.2" y="58.86" transform="matrix(0.7071 -0.7071 0.7071 0.7071 -19.8996 76.8075)" class="st1" width="7.14" height="7.14"></rect>
<rect x="38.83" y="159.77" transform="matrix(0.7071 -0.7071 0.7071 0.7071 -103.0812 77.822)" class="st0" width="7.14" height="7.14"></rect>
<rect x="99.38" y="169.86" transform="matrix(0.7071 -0.7071 0.7071 0.7071 -92.4822 123.5926)" class="st0" width="7.14" height="7.14"></rect>
<rect x="89.29" y="169.86" transform="matrix(0.7071 -0.7071 0.7071 0.7071 -95.4382 116.4577)" class="st0" width="7.14" height="7.14"></rect>
<rect x="79.2" y="169.86" transform="matrix(0.7071 -0.7071 0.7071 0.7071 -98.3938 109.3207)" class="st0" width="7.14" height="7.14"></rect>
<rect x="69.11" y="169.86" transform="matrix(0.7071 -0.7071 0.7071 0.7071 -101.3499 102.1857)" class="st0" width="7.14" height="7.14"></rect>
<rect x="59.01" y="169.86" transform="matrix(0.7071 -0.7071 0.7071 0.7071 -104.3053 95.0485)" class="st0" width="7.14" height="7.14"></rect>
<rect x="48.92" y="169.86" transform="matrix(0.7072 -0.707 0.707 0.7072 -107.253 87.898)" class="st0" width="7.14" height="7.14"></rect>
<rect x="99.38" y="190.05" transform="matrix(0.7071 -0.7071 0.7071 0.7071 -106.7542 129.5042)" class="st0" width="7.14" height="7.14"></rect>
<rect x="89.29" y="190.05" transform="matrix(0.7071 -0.7071 0.7071 0.7071 -109.7102 122.3694)" class="st0" width="7.14" height="7.14"></rect>
<rect x="79.2" y="190.05" transform="matrix(0.7071 -0.7071 0.7071 0.7071 -112.6658 115.2323)" class="st0" width="7.14" height="7.14"></rect>
<rect x="69.11" y="190.05" transform="matrix(0.7071 -0.7071 0.7071 0.7071 -115.6218 108.0974)" class="st0" width="7.14" height="7.14"></rect>
<rect x="59.01" y="190.05" transform="matrix(0.7071 -0.7071 0.7071 0.7071 -118.5775 100.9611)" class="st0" width="7.14" height="7.14"></rect>
<rect x="99.38" y="200.14" transform="matrix(0.7071 -0.7071 0.7071 0.7071 -113.89 132.46)" class="st0" width="7.14" height="7.14"></rect>
<rect x="89.29" y="200.14" transform="matrix(0.7071 -0.7071 0.7071 0.7071 -116.8462 125.3252)" class="st0" width="7.14" height="7.14"></rect>
<rect x="79.2" y="200.14" transform="matrix(0.7071 -0.7071 0.7071 0.7071 -119.8016 118.1881)" class="st0" width="7.14" height="7.14"></rect>
<rect x="99.38" y="210.23" transform="matrix(0.7071 -0.7071 0.7071 0.7071 -121.026 135.4158)" class="st0" width="7.14" height="7.14"></rect>
<rect x="89.29" y="210.23" transform="matrix(0.7071 -0.7071 0.7071 0.7071 -123.9822 128.2811)" class="st0" width="7.14" height="7.14"></rect>
<rect x="99.38" y="220.32" transform="matrix(0.7071 -0.7071 0.7071 0.7071 -128.1618 138.3715)" class="st0" width="7.14" height="7.14"></rect>
<polyline class="st2" points="102.95,97.75 107.99,102.79 102.95,107.84 "></polyline>
<polyline class="st2" points="102.95,107.84 107.99,112.88 102.95,117.93 "></polyline>
<polyline class="st2" points="102.95,128.02 107.99,133.07 102.95,138.11 "></polyline>
<polyline class="st1" points="102.95,117.93 107.99,122.97 102.95,128.02 "></polyline>
<polyline class="st2" points="102.95,148.2 107.99,153.25 102.95,158.3 "></polyline>
<polyline class="st2" points="102.95,138.11 107.99,143.16 102.95,148.2 "></polyline>
<polyline class="st1" points="102.95,47.29 107.99,52.33 102.95,57.38 "></polyline>
<polyline class="st2" points="102.95,37.2 107.99,42.24 102.95,47.29 "></polyline>
<polyline class="st2" points="102.95,27.1 107.99,32.15 102.95,37.2 "></polyline>
<polyline class="st2" points="102.95,17.01 107.99,22.06 102.95,27.1 "></polyline>
<polyline class="st2" points="102.95,77.56 107.99,82.61 102.95,87.65 "></polyline>
<polyline class="st2" points="102.95,87.65 107.99,92.7 102.95,97.75 "></polyline>
<polyline class="st2" points="102.95,67.47 107.99,72.52 102.95,77.56 "></polyline>
<polyline class="st2" points="102.95,168.39 107.99,173.43 102.95,178.48 "></polyline>
<polyline class="st2" points="102.95,188.57 107.99,193.62 102.95,198.66 "></polyline>
<polyline class="st2" points="102.95,198.66 107.99,203.71 102.95,208.75 "></polyline>
<polyline class="st2" points="102.95,208.75 107.99,213.8 102.95,218.85 "></polyline>
<polyline class="st2" points="102.95,218.85 107.99,223.89 102.95,228.94 "></polyline>
<rect x="109.47" y="99.22" transform="matrix(0.7072 -0.707 0.707 0.7072 -39.5768 110.0236)" class="st2" width="7.14" height="7.14"></rect>
<rect x="119.56" y="119.41" transform="matrix(0.7071 -0.7071 0.7071 0.7071 -50.8916 123.0861)" class="st2" width="7.14" height="7.14"></rect>
<rect x="129.66" y="139.59" transform="matrix(0.7071 -0.7071 0.7071 0.7071 -62.2079 136.1326)" class="st2" width="7.14" height="7.14"></rect>
<rect x="119.56" y="129.5" transform="matrix(0.7071 -0.7071 0.7071 0.7071 -58.0277 126.0409)" class="st2" width="7.14" height="7.14"></rect>
<rect x="109.47" y="109.32" transform="matrix(0.707 -0.7072 0.7072 0.707 -46.7117 113.0095)" class="st2" width="7.14" height="7.14"></rect>
<rect x="109.47" y="119.41" transform="matrix(0.7072 -0.707 0.707 0.7072 -53.8467 115.9336)" class="st1" width="7.14" height="7.14"></rect>
<rect x="119.56" y="139.59" transform="matrix(0.7071 -0.7071 0.7071 0.7071 -65.1636 128.9978)" class="st2" width="7.14" height="7.14"></rect>
<rect x="129.66" y="149.68" transform="matrix(0.7071 -0.7071 0.7071 0.7071 -69.3438 139.0896)" class="st2" width="7.14" height="7.14"></rect>
<rect x="119.56" y="149.68" transform="matrix(0.7071 -0.7071 0.7071 0.7071 -72.2997 131.9525)" class="st2" width="7.14" height="7.14"></rect>
<rect x="109.47" y="139.59" transform="matrix(0.7071 -0.7071 0.7071 0.7071 -68.1194 121.8609)" class="st2" width="7.14" height="7.14"></rect>
<rect x="109.47" y="129.5" transform="matrix(0.7071 -0.7071 0.7071 0.7071 -60.9834 118.9051)" class="st2" width="7.14" height="7.14"></rect>
<rect x="109.47" y="149.68" transform="matrix(0.7072 -0.707 0.707 0.7072 -75.2526 124.799)" class="st2" width="7.14" height="7.14"></rect>
<rect x="180.11" y="58.86" transform="matrix(0.7071 -0.7071 0.7071 0.7071 9.6584 148.1666)" class="st2" width="7.14" height="7.14"></rect>
<rect x="180.11" y="68.95" transform="matrix(0.7071 -0.7071 0.7071 0.7071 2.5218 151.1214)" class="st2" width="7.14" height="7.14"></rect>
<rect x="170.02" y="58.86" transform="matrix(0.7071 -0.7071 0.7071 0.7071 6.702 141.0299)" class="st1" width="7.14" height="7.14"></rect>
<rect x="159.93" y="58.86" transform="matrix(0.7071 -0.7071 0.7071 0.7071 3.747 133.8953)" class="st2" width="7.14" height="7.14"></rect>
<rect x="170.02" y="68.95" transform="matrix(0.7072 -0.707 0.707 0.7072 -0.4405 143.9693)" class="st2" width="7.14" height="7.14"></rect>
<rect x="180.11" y="79.04" transform="matrix(0.7071 -0.7071 0.7071 0.7071 -4.6136 154.0783)" class="st2" width="7.14" height="7.14"></rect>
<rect x="180.11" y="89.13" transform="matrix(0.7071 -0.7071 0.7071 0.7071 -11.7501 157.033)" class="st2" width="7.14" height="7.14"></rect>
<rect x="170.02" y="79.04" transform="matrix(0.7071 -0.7071 0.7071 0.7071 -7.5699 146.9415)" class="st2" width="7.14" height="7.14"></rect>
<rect x="159.93" y="68.95" transform="matrix(0.7071 -0.7071 0.7071 0.7071 -3.3895 136.8502)" class="st2" width="7.14" height="7.14"></rect>
<rect x="149.84" y="58.86" transform="matrix(0.7071 -0.7071 0.7071 0.7071 0.7907 126.7585)" class="st2" width="7.14" height="7.14"></rect>
<rect x="139.75" y="58.86" transform="matrix(0.7071 -0.7071 0.7071 0.7071 -2.1647 119.6233)" class="st2" width="7.14" height="7.14"></rect>
<rect x="149.84" y="58.86" transform="matrix(0.7071 -0.7071 0.7071 0.7071 0.7912 126.7593)" class="st2" width="7.14" height="7.14"></rect>
<rect x="159.93" y="68.95" transform="matrix(0.7071 -0.7071 0.7071 0.7071 -3.389 136.8512)" class="st2" width="7.14" height="7.14"></rect>
<rect x="170.02" y="89.13" transform="matrix(0.7072 -0.707 0.707 0.7072 -14.7111 149.8795)" class="st2" width="7.14" height="7.14"></rect>
<rect x="180.11" y="99.22" transform="matrix(0.7071 -0.7071 0.7071 0.7071 -18.8856 159.99)" class="st2" width="7.14" height="7.14"></rect>
<rect x="170.02" y="99.22" transform="matrix(0.7071 -0.7071 0.7071 0.7071 -21.8418 152.853)" class="st1" width="7.14" height="7.14"></rect>
<rect x="159.93" y="89.13" transform="matrix(0.7071 -0.7071 0.7071 0.7071 -17.6614 142.7618)" class="st1" width="7.14" height="7.14"></rect>
<rect x="159.93" y="79.04" transform="matrix(0.7071 -0.7071 0.7071 0.7071 -10.5255 139.806)" class="st2" width="7.14" height="7.14"></rect>
<rect x="149.84" y="79.04" transform="matrix(0.7071 -0.7071 0.7071 0.7071 -13.4813 132.6701)" class="st1" width="7.14" height="7.14"></rect>
<rect x="139.75" y="58.86" transform="matrix(0.7071 -0.7071 0.7071 0.7071 -2.1651 119.6225)" class="st1" width="7.14" height="7.14"></rect>
<rect x="129.66" y="58.86" transform="matrix(0.7071 -0.7071 0.7071 0.7071 -5.1209 112.4865)" class="st2" width="7.14" height="7.14"></rect>
<rect x="119.56" y="58.86" transform="matrix(0.7071 -0.7071 0.7071 0.7071 -8.0763 105.3513)" class="st2" width="7.14" height="7.14"></rect>
<rect x="129.66" y="68.95" transform="matrix(0.7071 -0.7071 0.7071 0.7071 -12.2565 115.4432)" class="st2" width="7.14" height="7.14"></rect>
<rect x="139.75" y="79.04" transform="matrix(0.7071 -0.7071 0.7071 0.7071 -16.4367 125.535)" class="st2" width="7.14" height="7.14"></rect>
<rect x="149.84" y="68.95" transform="matrix(0.7071 -0.7071 0.7071 0.7071 -6.3453 129.7143)" class="st2" width="7.14" height="7.14"></rect>
<rect x="139.75" y="68.95" transform="matrix(0.7071 -0.7071 0.7071 0.7071 -9.3007 122.5792)" class="st1" width="7.14" height="7.14"></rect>
<rect x="149.84" y="89.13" transform="matrix(0.7071 -0.7071 0.7071 0.7071 -20.6168 135.6269)" class="st2" width="7.14" height="7.14"></rect>
<rect x="159.93" y="99.22" transform="matrix(0.7071 -0.7071 0.7071 0.7071 -24.797 145.7187)" class="st2" width="7.14" height="7.14"></rect>
<rect x="170.02" y="109.32" transform="matrix(0.7072 -0.707 0.707 0.7072 -28.9811 155.7896)" class="st1" width="7.14" height="7.14"></rect>
<rect x="159.93" y="109.32" transform="matrix(0.707 -0.7072 0.7072 0.707 -31.9292 148.6927)" class="st2" width="7.14" height="7.14"></rect>
<rect x="149.84" y="99.22" transform="matrix(0.7071 -0.7071 0.7071 0.7071 -27.7532 138.5817)" class="st2" width="7.14" height="7.14"></rect>
<rect x="139.75" y="89.13" transform="matrix(0.7071 -0.7071 0.7071 0.7071 -23.573 128.4899)" class="st2" width="7.14" height="7.14"></rect>
<rect x="129.66" y="68.95" transform="matrix(0.7071 -0.7071 0.7071 0.7071 -12.2569 115.4423)" class="st2" width="7.14" height="7.14"></rect>
<rect x="119.56" y="68.95" transform="matrix(0.7071 -0.7071 0.7071 0.7071 -15.2127 108.3064)" class="st1" width="7.14" height="7.14"></rect>
<rect x="109.47" y="58.86" transform="matrix(0.7071 -0.7071 0.7071 0.7071 -11.0325 98.2148)" class="st1" width="7.14" height="7.14"></rect>
<rect x="109.47" y="68.95" transform="matrix(0.7072 -0.707 0.707 0.7072 -18.171 101.1582)" class="st2" width="7.14" height="7.14"></rect>
<rect x="119.56" y="79.04" transform="matrix(0.7071 -0.7071 0.7071 0.7071 -22.3483 111.263)" class="st1" width="7.14" height="7.14"></rect>
<rect x="129.66" y="79.04" transform="matrix(0.7071 -0.7071 0.7071 0.7071 -19.3925 118.399)" class="st2" width="7.14" height="7.14"></rect>
<rect x="139.75" y="89.13" transform="matrix(0.7071 -0.7071 0.7071 0.7071 -23.5727 128.4908)" class="st2" width="7.14" height="7.14"></rect>
<rect x="149.84" y="99.22" transform="matrix(0.7071 -0.7071 0.7071 0.7071 -27.7528 138.5827)" class="st2" width="7.14" height="7.14"></rect>
<rect x="159.93" y="109.31" transform="matrix(0.7071 -0.7071 0.7071 0.7071 -31.9324 148.6743)" class="st2" width="7.14" height="7.14"></rect>
<rect x="149.84" y="119.41" transform="matrix(0.7071 -0.7071 0.7071 0.7071 -42.0244 144.493)" class="st1" width="7.14" height="7.14"></rect>
<rect x="139.75" y="109.32" transform="matrix(0.707 -0.7072 0.7072 0.707 -37.8422 134.4193)" class="st1" width="7.14" height="7.14"></rect>
<rect x="129.66" y="99.22" transform="matrix(0.7071 -0.7071 0.7071 0.7071 -33.6648 124.3097)" class="st2" width="7.14" height="7.14"></rect>
<rect x="149.84" y="109.32" transform="matrix(0.707 -0.7072 0.7072 0.707 -34.8857 141.556)" class="st2" width="7.14" height="7.14"></rect>
<rect x="139.75" y="99.22" transform="matrix(0.7071 -0.7071 0.7071 0.7071 -30.709 131.4457)" class="st2" width="7.14" height="7.14"></rect>
<rect x="129.66" y="89.13" transform="matrix(0.7071 -0.7071 0.7071 0.7071 -26.5288 121.3539)" class="st2" width="7.14" height="7.14"></rect>
<rect x="119.56" y="89.13" transform="matrix(0.7071 -0.7071 0.7071 0.7071 -29.4846 114.218)" class="st1" width="7.14" height="7.14"></rect>
<rect x="109.47" y="68.95" transform="matrix(0.7071 -0.7071 0.7071 0.7071 -18.1684 101.1706)" class="st2" width="7.14" height="7.14"></rect>
<rect x="180.11" y="48.77" transform="matrix(0.7071 -0.7071 0.7071 0.7071 16.7942 145.2109)" class="st2" width="7.14" height="7.14"></rect>
<rect x="170.02" y="48.77" transform="matrix(0.707 -0.7072 0.7072 0.707 13.8464 138.0901)" class="st2" width="7.14" height="7.14"></rect>
<rect x="159.93" y="48.77" transform="matrix(0.7071 -0.7071 0.7071 0.7071 10.8829 130.9396)" class="st1" width="7.14" height="7.14"></rect>
<rect x="149.84" y="48.77" transform="matrix(0.707 -0.7072 0.7072 0.707 7.9336 123.8173)" class="st1" width="7.14" height="7.14"></rect>
<rect x="139.75" y="48.77" transform="matrix(0.7071 -0.7071 0.7071 0.7071 4.9712 116.6676)" class="st2" width="7.14" height="7.14"></rect>
<rect x="129.66" y="48.77" transform="matrix(0.707 -0.7072 0.7072 0.707 2.0206 109.5439)" class="st2" width="7.14" height="7.14"></rect>
<rect x="119.56" y="48.77" transform="matrix(0.7071 -0.7071 0.7071 0.7071 -0.9405 102.3956)" class="st2" width="7.14" height="7.14"></rect>
<rect x="109.47" y="48.77" transform="matrix(0.707 -0.7072 0.7072 0.707 -3.8924 95.2708)" class="st2" width="7.14" height="7.14"></rect>
<rect x="180.11" y="38.67" transform="matrix(0.7071 -0.7071 0.7071 0.7071 23.9297 142.2552)" class="st2" width="7.14" height="7.14"></rect>
<rect x="170.02" y="38.67" transform="matrix(0.7071 -0.7071 0.7071 0.7071 20.9733 135.1185)" class="st2" width="7.14" height="7.14"></rect>
<rect x="180.11" y="28.58" transform="matrix(0.7071 -0.7071 0.7071 0.7071 31.0657 139.2994)" class="st2" width="7.14" height="7.14"></rect>
<rect x="180.11" y="18.49" transform="matrix(0.7071 -0.7071 0.7071 0.7071 38.2021 136.344)" class="st2" width="7.14" height="7.14"></rect>
<rect x="170.02" y="28.58" transform="matrix(0.7071 -0.7071 0.7071 0.7071 28.1092 132.1628)" class="st2" width="7.14" height="7.14"></rect>
<rect x="170.02" y="18.49" transform="matrix(0.7071 -0.7071 0.7071 0.7071 35.2452 129.207)" class="st2" width="7.14" height="7.14"></rect>
<rect x="159.93" y="38.67" transform="matrix(0.7071 -0.7071 0.7071 0.7071 18.0183 127.9839)" class="st2" width="7.14" height="7.14"></rect>
<rect x="149.84" y="38.67" transform="matrix(0.7071 -0.7071 0.7071 0.7071 15.0619 120.8472)" class="st2" width="7.14" height="7.14"></rect>
<rect x="139.75" y="38.67" transform="matrix(0.7071 -0.7071 0.7071 0.7071 12.1067 113.7119)" class="st2" width="7.14" height="7.14"></rect>
<rect x="129.66" y="38.67" transform="matrix(0.7071 -0.7071 0.7071 0.7071 9.1503 106.5752)" class="st2" width="7.14" height="7.14"></rect>
<rect x="119.56" y="38.67" transform="matrix(0.7071 -0.7071 0.7071 0.7071 6.195 99.4399)" class="st2" width="7.14" height="7.14"></rect>
<rect x="109.47" y="38.67" transform="matrix(0.7071 -0.7071 0.7071 0.7071 3.2388 92.3035)" class="st2" width="7.14" height="7.14"></rect>
<rect x="159.93" y="28.58" transform="matrix(0.7071 -0.7071 0.7071 0.7071 25.1543 125.0281)" class="st2" width="7.14" height="7.14"></rect>
<rect x="149.84" y="28.58" transform="matrix(0.7071 -0.7071 0.7071 0.7071 22.1979 117.8914)" class="st2" width="7.14" height="7.14"></rect>
<rect x="159.93" y="18.49" transform="matrix(0.7071 -0.7071 0.7071 0.7071 32.2907 122.0727)" class="st2" width="7.14" height="7.14"></rect>
<rect x="149.84" y="18.49" transform="matrix(0.7071 -0.7071 0.7071 0.7071 29.3338 114.9356)" class="st2" width="7.14" height="7.14"></rect>
<rect x="139.75" y="28.58" transform="matrix(0.7071 -0.7071 0.7071 0.7071 19.2426 110.7561)" class="st2" width="7.14" height="7.14"></rect>
<rect x="59.01" y="18.49" transform="matrix(0.7071 -0.7071 0.7071 0.7071 2.7323 50.713)" class="st0" width="7.14" height="7.14"></rect>
<rect x="139.75" y="18.49" transform="matrix(0.7071 -0.7071 0.7071 0.7071 26.3789 107.8006)" class="st2" width="7.14" height="7.14"></rect>
<rect x="129.66" y="28.58" transform="matrix(0.7071 -0.7071 0.7071 0.7071 16.2863 103.6194)" class="st2" width="7.14" height="7.14"></rect>
<rect x="119.56" y="28.58" transform="matrix(0.7071 -0.7071 0.7071 0.7071 13.331 96.4841)" class="st2" width="7.14" height="7.14"></rect>
<rect x="109.47" y="28.58" transform="matrix(0.7071 -0.7071 0.7071 0.7071 10.3747 89.3477)" class="st2" width="7.14" height="7.14"></rect>
<rect x="129.66" y="18.49" transform="matrix(0.7071 -0.7071 0.7071 0.7071 23.4222 100.6636)" class="st2" width="7.14" height="7.14"></rect>
<rect x="119.56" y="18.49" transform="matrix(0.7071 -0.7071 0.7071 0.7071 20.4672 93.5286)" class="st2" width="7.14" height="7.14"></rect>
<rect x="109.47" y="18.49" transform="matrix(0.7071 -0.7071 0.7071 0.7071 17.5107 86.3919)" class="st2" width="7.14" height="7.14"></rect>
<rect x="18.65" y="8.4" transform="matrix(0.7071 -0.7071 0.7071 0.7071 -1.9548 19.2138)" class="st0" width="7.14" height="7.14"></rect>
<rect x="8.56" y="58.86" transform="matrix(0.7071 -0.7071 0.7071 0.7071 -40.59 26.8566)" class="st0" width="7.14" height="7.14"></rect>
<rect x="8.56" y="68.95" transform="matrix(0.7071 -0.7071 0.7071 0.7071 -47.7259 29.8123)" class="st0" width="7.14" height="7.14"></rect>
<rect x="8.56" y="79.04" transform="matrix(0.7071 -0.7071 0.7071 0.7071 -54.8619 32.7683)" class="st0" width="7.14" height="7.14"></rect>
<rect x="8.56" y="89.13" transform="matrix(0.7071 -0.7071 0.7071 0.7071 -61.9978 35.7239)" class="st0" width="7.14" height="7.14"></rect>
<rect x="8.56" y="99.22" transform="matrix(0.7071 -0.7071 0.7071 0.7071 -69.1339 38.68)" class="st0" width="7.14" height="7.14"></rect>
<rect x="8.56" y="109.32" transform="matrix(0.707 -0.7072 0.7072 0.707 -76.2763 41.6441)" class="st0" width="7.14" height="7.14"></rect>
<rect x="8.56" y="119.41" transform="matrix(0.7071 -0.7071 0.7071 0.7071 -83.4052 44.5913)" class="st0" width="7.14" height="7.14"></rect>
<rect x="8.56" y="129.5" transform="matrix(0.7071 -0.7071 0.7071 0.7071 -90.5409 47.5467)" class="st0" width="7.14" height="7.14"></rect>
<rect x="8.56" y="139.59" transform="matrix(0.7071 -0.7071 0.7071 0.7071 -97.6772 50.503)" class="st0" width="7.14" height="7.14"></rect>
<rect x="8.56" y="48.77" transform="matrix(0.7071 -0.7071 0.7071 0.7071 -33.4541 23.9009)" class="st0" width="7.14" height="7.14"></rect>
<rect x="8.56" y="38.67" transform="matrix(0.7071 -0.7071 0.7071 0.7071 -26.3187 20.9453)" class="st0" width="7.14" height="7.14"></rect>
<rect x="8.56" y="28.58" transform="matrix(0.7071 -0.7071 0.7071 0.7071 -19.1827 17.9894)" class="st0" width="7.14" height="7.14"></rect>
<rect x="8.56" y="18.49" transform="matrix(0.7071 -0.7071 0.7071 0.7071 -12.0467 15.0337)" class="st0" width="7.14" height="7.14"></rect>
<rect x="8.56" y="8.4" transform="matrix(0.7071 -0.7071 0.7071 0.7071 -4.9107 12.0778)" class="st0" width="7.14" height="7.14"></rect>
<rect x="28.74" y="8.4" transform="matrix(0.7071 -0.7071 0.7071 0.7071 1.001 26.3499)" class="st0" width="7.14" height="7.14"></rect>
<rect x="48.92" y="8.4" transform="matrix(0.7071 -0.7071 0.7071 0.7071 6.9121 40.6211)" class="st0" width="7.14" height="7.14"></rect>
<rect x="38.83" y="8.4" transform="matrix(0.7071 -0.7071 0.7071 0.7071 3.9569 33.4859)" class="st0" width="7.14" height="7.14"></rect>
<rect x="79.2" y="8.4" transform="matrix(0.7071 -0.7071 0.7071 0.7071 15.7801 62.0293)" class="st0" width="7.14" height="7.14"></rect>
<rect x="69.11" y="8.4" transform="matrix(0.7071 -0.7071 0.7071 0.7071 12.8237 54.8928)" class="st0" width="7.14" height="7.14"></rect>
<rect x="99.38" y="8.4" transform="matrix(0.7071 -0.7071 0.7071 0.7071 21.6918 76.3014)" class="st0" width="7.14" height="7.14"></rect>
<rect x="89.29" y="8.4" transform="matrix(0.7071 -0.7071 0.7071 0.7071 18.7353 69.1647)" class="st0" width="7.14" height="7.14"></rect>
<polyline class="st2" points="102.95,6.92 107.99,11.97 102.95,17.01 "></polyline>
<rect x="180.11" y="8.4" transform="matrix(0.7071 -0.7071 0.7071 0.7071 45.3381 133.3881)" class="st2" width="7.14" height="7.14"></rect>
<rect x="170.02" y="8.4" transform="matrix(0.7071 -0.7071 0.7071 0.7071 42.3811 126.2512)" class="st2" width="7.14" height="7.14"></rect>
<rect x="159.93" y="8.4" transform="matrix(0.7071 -0.7071 0.7071 0.7071 39.4267 119.1168)" class="st2" width="7.14" height="7.14"></rect>
<rect x="149.84" y="8.4" transform="matrix(0.7071 -0.7071 0.7071 0.7071 36.4698 111.9798)" class="st2" width="7.14" height="7.14"></rect>
<rect x="59.01" y="8.4" transform="matrix(0.7071 -0.7071 0.7071 0.7071 9.8683 47.7572)" class="st0" width="7.14" height="7.14"></rect>
<rect x="139.75" y="8.4" transform="matrix(0.7071 -0.7071 0.7071 0.7071 33.5149 104.8447)" class="st2" width="7.14" height="7.14"></rect>
<rect x="129.66" y="8.4" transform="matrix(0.7071 -0.7071 0.7071 0.7071 30.5582 97.7078)" class="st2" width="7.14" height="7.14"></rect>
<rect x="119.56" y="8.4" transform="matrix(0.7071 -0.7071 0.7071 0.7071 27.6032 90.5727)" class="st2" width="7.14" height="7.14"></rect>
<rect x="109.47" y="8.4" transform="matrix(0.7071 -0.7071 0.7071 0.7071 24.6466 83.4361)" class="st2" width="7.14" height="7.14"></rect>
<rect x="109.47" y="79.04" transform="matrix(0.7072 -0.707 0.707 0.7072 -25.3062 104.1134)" class="st2" width="7.14" height="7.14"></rect>
<rect x="119.56" y="99.22" transform="matrix(0.7071 -0.7071 0.7071 0.7071 -36.6203 117.1747)" class="st1" width="7.14" height="7.14"></rect>
<rect x="129.66" y="109.31" transform="matrix(0.7071 -0.7071 0.7071 0.7071 -40.8 127.2663)" class="st2" width="7.14" height="7.14"></rect>
<rect x="139.75" y="119.41" transform="matrix(0.7071 -0.7071 0.7071 0.7071 -44.9799 137.3581)" class="st2" width="7.14" height="7.14"></rect>
<rect x="149.84" y="129.5" transform="matrix(0.7071 -0.7071 0.7071 0.7071 -49.1601 147.4499)" class="st2" width="7.14" height="7.14"></rect>
<rect x="139.75" y="129.5" transform="matrix(0.7071 -0.7071 0.7071 0.7071 -52.1161 140.3128)" class="st2" width="7.14" height="7.14"></rect>
<rect x="129.66" y="119.41" transform="matrix(0.7071 -0.7071 0.7071 0.7071 -47.936 130.221)" class="st2" width="7.14" height="7.14"></rect>
<rect x="119.56" y="109.32" transform="matrix(0.707 -0.7072 0.7072 0.707 -43.7553 120.146)" class="st1" width="7.14" height="7.14"></rect>
<rect x="109.47" y="89.13" transform="matrix(0.7071 -0.7071 0.7071 0.7071 -32.4403 107.0822)" class="st2" width="7.14" height="7.14"></rect>
<rect x="149.84" y="149.68" transform="matrix(0.7071 -0.7071 0.7071 0.7071 -63.4321 153.3616)" class="st2" width="7.14" height="7.14"></rect>
<rect x="139.75" y="149.68" transform="matrix(0.7071 -0.7071 0.7071 0.7071 -66.3881 146.2244)" class="st2" width="7.14" height="7.14"></rect>
<rect x="180.11" y="109.32" transform="matrix(0.707 -0.7072 0.7072 0.707 -26.0165 162.9653)" class="st2" width="7.14" height="7.14"></rect>
<rect x="180.11" y="119.41" transform="matrix(0.7071 -0.7071 0.7071 0.7071 -33.1569 165.9014)" class="st2" width="7.14" height="7.14"></rect>
<rect x="180.11" y="129.5" transform="matrix(0.7071 -0.7071 0.7071 0.7071 -40.2932 168.8559)" class="st2" width="7.14" height="7.14"></rect>
<rect x="170.02" y="119.41" transform="matrix(0.7071 -0.7071 0.7071 0.7071 -36.113 158.7643)" class="st2" width="7.14" height="7.14"></rect>
<rect x="170.02" y="129.5" transform="matrix(0.7072 -0.707 0.707 0.7072 -43.2515 161.6998)" class="st2" width="7.14" height="7.14"></rect>
<rect x="180.11" y="139.59" transform="matrix(0.7071 -0.7071 0.7071 0.7071 -47.4289 171.8131)" class="st2" width="7.14" height="7.14"></rect>
<rect x="190.21" y="58.86" transform="matrix(0.7071 -0.7071 0.7071 0.7071 12.6143 155.3026)" class="st2" width="7.14" height="7.14"></rect>
<rect x="190.21" y="68.95" transform="matrix(0.7071 -0.7071 0.7071 0.7071 5.4776 158.2574)" class="st2" width="7.14" height="7.14"></rect>
<rect x="190.21" y="79.04" transform="matrix(0.7071 -0.7071 0.7071 0.7071 -1.6577 161.2143)" class="st2" width="7.14" height="7.14"></rect>
<rect x="190.21" y="89.13" transform="matrix(0.7071 -0.7071 0.7071 0.7071 -8.7943 164.169)" class="st2" width="7.14" height="7.14"></rect>
<rect x="190.21" y="99.22" transform="matrix(0.7071 -0.7071 0.7071 0.7071 -15.9297 167.126)" class="st2" width="7.14" height="7.14"></rect>
<rect x="190.21" y="48.77" transform="matrix(0.7071 -0.7071 0.7071 0.7071 19.7501 152.3469)" class="st2" width="7.14" height="7.14"></rect>
<rect x="190.21" y="38.67" transform="matrix(0.7071 -0.7071 0.7071 0.7071 26.8856 149.3912)" class="st2" width="7.14" height="7.14"></rect>
<rect x="190.21" y="28.58" transform="matrix(0.7071 -0.7071 0.7071 0.7071 34.0216 146.4354)" class="st2" width="7.14" height="7.14"></rect>
<rect x="190.21" y="18.49" transform="matrix(0.7071 -0.7071 0.7071 0.7071 41.1579 143.48)" class="st2" width="7.14" height="7.14"></rect>
<rect x="190.21" y="8.4" transform="matrix(0.7071 -0.7071 0.7071 0.7071 48.294 140.5242)" class="st2" width="7.14" height="7.14"></rect>
<rect x="190.21" y="109.32" transform="matrix(0.707 -0.7072 0.7072 0.707 -23.06 170.102)" class="st2" width="7.14" height="7.14"></rect>
<rect x="190.21" y="119.41" transform="matrix(0.7071 -0.7071 0.7071 0.7071 -30.201 173.0374)" class="st2" width="7.14" height="7.14"></rect>
<rect x="190.21" y="129.5" transform="matrix(0.7071 -0.7071 0.7071 0.7071 -37.3374 175.9919)" class="st2" width="7.14" height="7.14"></rect>
<rect x="190.21" y="139.59" transform="matrix(0.7071 -0.7071 0.7071 0.7071 -44.473 178.9491)" class="st2" width="7.14" height="7.14"></rect>
<rect x="170.02" y="139.59" transform="matrix(0.7071 -0.7071 0.7071 0.7071 -50.3849 164.6759)" class="st2" width="7.14" height="7.14"></rect>
<rect x="159.93" y="119.41" transform="matrix(0.7071 -0.7071 0.7071 0.7071 -39.0686 151.6289)" class="st1" width="7.14" height="7.14"></rect>
<rect x="159.93" y="139.59" transform="matrix(0.7071 -0.7071 0.7071 0.7071 -53.3403 157.5418)" class="st2" width="7.14" height="7.14"></rect>
<rect x="129.66" y="129.5" transform="matrix(0.7071 -0.7071 0.7071 0.7071 -55.0719 133.1768)" class="st2" width="7.14" height="7.14"></rect>
<rect x="149.84" y="139.59" transform="matrix(0.7071 -0.7071 0.7071 0.7071 -56.2961 150.4058)" class="st2" width="7.14" height="7.14"></rect>
<rect x="139.75" y="139.59" transform="matrix(0.7071 -0.7071 0.7071 0.7071 -59.2521 143.2686)" class="st2" width="7.14" height="7.14"></rect>
<rect x="159.93" y="129.5" transform="matrix(0.7071 -0.7071 0.7071 0.7071 -46.2043 154.5859)" class="st2" width="7.14" height="7.14"></rect>
<rect x="170.02" y="149.68" transform="matrix(0.7072 -0.707 0.707 0.7072 -57.5221 167.61)" class="st2" width="7.14" height="7.14"></rect>
<rect x="159.93" y="149.68" transform="matrix(0.7071 -0.7071 0.7071 0.7071 -60.4765 160.4963)" class="st2" width="7.14" height="7.14"></rect>
<rect x="159.93" y="159.77" transform="matrix(0.7071 -0.7071 0.7071 0.7071 -67.6122 163.4521)" class="st2" width="7.14" height="7.14"></rect>
<rect x="129.66" y="169.86" transform="matrix(0.7071 -0.7071 0.7071 0.7071 -83.6152 145.001)" class="st2" width="7.14" height="7.14"></rect>
<rect x="119.56" y="169.86" transform="matrix(0.7071 -0.7071 0.7071 0.7071 -86.5709 137.8638)" class="st2" width="7.14" height="7.14"></rect>
<rect x="109.47" y="169.86" transform="matrix(0.7072 -0.707 0.707 0.7072 -89.5225 130.709)" class="st2" width="7.14" height="7.14"></rect>
<rect x="149.84" y="169.86" transform="matrix(0.7071 -0.7071 0.7071 0.7071 -77.7035 159.273)" class="st2" width="7.14" height="7.14"></rect>
<rect x="139.75" y="169.86" transform="matrix(0.7071 -0.7071 0.7071 0.7071 -80.6593 152.1357)" class="st2" width="7.14" height="7.14"></rect>
<rect x="129.66" y="190.05" transform="matrix(0.7071 -0.7071 0.7071 0.7071 -97.8871 150.9127)" class="st2" width="7.14" height="7.14"></rect>
<rect x="139.54" y="190.05" transform="matrix(0.7071 -0.7071 0.7071 0.7071 -94.9908 157.9049)" class="st2" width="7.14" height="7.14"></rect>
<rect x="119.56" y="190.05" transform="matrix(0.7071 -0.7071 0.7071 0.7071 -100.8429 143.7754)" class="st2" width="7.14" height="7.14"></rect>
<rect x="109.47" y="190.05" transform="matrix(0.7072 -0.707 0.707 0.7072 -103.793 136.6192)" class="st2" width="7.14" height="7.14"></rect>
<rect x="119.56" y="200.14" transform="matrix(0.7071 -0.7071 0.7071 0.7071 -107.9787 146.7312)" class="st2" width="7.14" height="7.14"></rect>
<rect x="109.47" y="200.14" transform="matrix(0.7072 -0.707 0.707 0.7072 -110.9283 139.5743)" class="st2" width="7.14" height="7.14"></rect>
<rect x="109.47" y="210.23" transform="matrix(0.7072 -0.707 0.707 0.7072 -118.0636 142.5295)" class="st2" width="7.14" height="7.14"></rect>
<rect x="18.65" y="149.68" transform="matrix(0.7071 -0.7071 0.7071 0.7071 -101.8573 60.5948)" class="st0" width="7.14" height="7.14"></rect>
<rect x="28.74" y="159.77" transform="matrix(0.707 -0.7072 0.7072 0.707 -106.0466 70.7004)" class="st0" width="7.14" height="7.14"></rect>
<rect x="38.83" y="169.86" transform="matrix(0.7071 -0.7071 0.7071 0.7071 -110.2167 80.7776)" class="st0" width="7.14" height="7.14"></rect>
<rect x="69.11" y="200.14" transform="matrix(0.7071 -0.7071 0.7071 0.7071 -122.7579 111.0532)" class="st0" width="7.14" height="7.14"></rect>
<rect x="79.2" y="210.23" transform="matrix(0.7071 -0.7071 0.7071 0.7071 -126.9376 121.1439)" class="st0" width="7.14" height="7.14"></rect>
<rect x="89.29" y="220.32" transform="matrix(0.707 -0.7072 0.7072 0.707 -131.1273 131.2592)" class="st0" width="7.14" height="7.14"></rect>
<rect x="99.38" y="230.41" transform="matrix(0.7071 -0.7071 0.7071 0.7071 -135.2973 141.3271)" class="st0" width="7.14" height="7.14"></rect>
<polyline class="st2" points="102.95,228.94 107.99,233.98 102.95,239.03 "></polyline>
<rect x="180.11" y="149.68" transform="matrix(0.7071 -0.7071 0.7071 0.7071 -54.5649 174.7689)" class="st2" width="7.14" height="7.14"></rect>
<rect x="170.02" y="159.77" transform="matrix(0.7071 -0.7071 0.7071 0.7071 -64.6565 170.5889)" class="st2" width="7.14" height="7.14"></rect>
<rect x="159.93" y="169.86" transform="matrix(0.7071 -0.7071 0.7071 0.7071 -74.7477 166.4077)" class="st2" width="7.14" height="7.14"></rect>
<rect x="129.66" y="200.14" transform="matrix(0.7071 -0.7071 0.7071 0.7071 -105.0231 153.8685)" class="st2" width="7.14" height="7.14"></rect>
<rect x="119.56" y="210.23" transform="matrix(0.7071 -0.7071 0.7071 0.7071 -115.1147 149.687)" class="st2" width="7.14" height="7.14"></rect>
<rect x="109.47" y="220.32" transform="matrix(0.7071 -0.7071 0.7071 0.7071 -125.2066 145.5083)" class="st2" width="7.14" height="7.14"></rect>
<rect x="149.84" y="129.5" transform="matrix(0.7071 -0.7071 0.7071 0.7071 -49.1603 147.4488)" class="st2" width="7.14" height="7.14"></rect>
<rect x="129.66" y="119.41" transform="matrix(0.7071 -0.7071 0.7071 0.7071 -47.9358 130.2221)" class="st2" width="7.14" height="7.14"></rect>
<rect x="139.75" y="129.5" transform="matrix(0.7071 -0.7071 0.7071 0.7071 -52.116 140.3139)" class="st2" width="7.14" height="7.14"></rect>
<polygon class="st3" points="50.27,168.1 50.27,158.52 52.7,158.52 52.7,166.12 57.1,166.12 57.1,168.1 "></polygon>
<path class="st3" d="M59.74,168.1l2.81-9.58h3.95l2.81,9.58h-2.57l-0.48-1.91h-3.46l-0.48,1.91H59.74z M63.27,164.32h2.5l-1.01-3.96
	h-0.47L63.27,164.32z"></path>
<path class="st3" d="M71.83,168.1v-9.58h6.4l1.44,1.44v2.3l-0.65,0.66l1.03,0.96v2.77l-1.44,1.44H71.83z M74.26,162.24h2.63
	l0.46-0.46v-0.96l-0.46-0.45h-2.63V162.24z M74.26,166.25h2.9l0.45-0.45v-1.42l-0.45-0.46h-2.9V166.25z"></path>
<path class="st3" d="M84.41,168.1l-1.44-1.44v-6.69l1.44-1.44h5.62l1.44,1.44v6.69l-1.44,1.44H84.41z M85.87,166.25h2.73l0.46-0.45
	v-4.98l-0.48-0.45h-2.7l-0.47,0.45v4.98L85.87,166.25z"></path>
<path class="st3" d="M94.66,168.1v-9.58h6.53l1.46,1.44v3.43l-1.09,1.09l1.46,3.61h-2.44l-1.26-3.26h-2.21v3.26H94.66z
	 M97.09,162.99h2.73l0.46-0.45v-1.72l-0.46-0.45h-2.73V162.99z"></path>
<path class="st3" d="M104.82,168.1l2.81-9.58h3.95l2.81,9.58h-2.57l-0.48-1.91h-3.46l-0.48,1.91H104.82z M108.36,164.32h2.5
	l-1.01-3.96h-0.47L108.36,164.32z"></path>
<polygon class="st3" points="118.18,168.1 118.18,160.49 115.5,160.49 115.5,158.52 123.29,158.52 123.29,160.49 120.61,160.49
	120.61,168.1 "></polygon>
<path class="st3" d="M126.84,168.1l-1.44-1.44v-6.69l1.44-1.44h5.62l1.44,1.44v6.69l-1.44,1.44H126.84z M128.3,166.25h2.73
	l0.46-0.45v-4.98l-0.48-0.45h-2.7l-0.47,0.45v4.98L128.3,166.25z"></path>
<path class="st3" d="M136.95,168.1v-9.58h6.53l1.46,1.44v3.43l-1.09,1.09l1.46,3.61h-2.44l-1.26-3.26h-2.21v3.26H136.95z
	 M139.39,162.99h2.73l0.46-0.45v-1.72l-0.46-0.45h-2.73V162.99z"></path>
<polygon class="st3" points="150.01,168.1 150.01,164.75 149.05,163.91 146.81,158.52 149.61,158.52 150.99,162.93 151.45,162.93
	152.83,158.52 155.63,158.52 153.39,163.91 152.43,164.75 152.43,168.1 "></polygon>
<polygon class="st3" points="28.42,188.4 28.42,178.82 35.62,178.82 35.62,180.79 30.85,180.79 30.85,182.82 35.02,182.82
	35.02,184.66 30.85,184.66 30.85,188.4 "></polygon>
<path class="st3" d="M39.19,188.4l-1.44-1.44v-6.69l1.44-1.44h5.62l1.44,1.44v6.69l-1.44,1.44H39.19z M40.64,186.55h2.73l0.46-0.45
	v-4.98l-0.48-0.45h-2.7l-0.47,0.45v4.98L40.64,186.55z"></path>
<path class="st3" d="M48.64,188.4v-9.58h6.53l1.46,1.44v3.43l-1.09,1.09l1.46,3.61h-2.44l-1.26-3.26h-2.21v3.26H48.64z
	 M51.07,183.29h2.73l0.46-0.45v-1.72l-0.46-0.45h-2.73V183.29z"></path>
<path class="st3" d="M63.14,188.4v-9.58h6.25l1.99,1.99v5.6l-1.99,1.99H63.14z M65.57,186.55h2.77l0.69-0.69v-4.51l-0.69-0.69h-2.77
	V186.55z"></path>
<path class="st3" d="M72.41,188.4l2.81-9.58h3.95l2.81,9.58h-2.57l-0.48-1.91h-3.46l-0.48,1.91H72.41z M75.95,184.62h2.5l-1.01-3.96
	h-0.47L75.95,184.62z"></path>
<polygon class="st3" points="84.87,188.4 84.87,180.79 82.19,180.79 82.19,178.82 89.97,178.82 89.97,180.79 87.3,180.79
	87.3,188.4 "></polygon>
<path class="st3" d="M89.88,188.4l2.81-9.58h3.95l2.81,9.58h-2.57l-0.48-1.91h-3.46l-0.48,1.91H89.88z M93.42,184.62h2.5l-1.01-3.96
	h-0.47L93.42,184.62z"></path>
<polygon class="st3" points="104.9,188.4 104.9,186.45 109.89,186.45 110.35,185.99 110.35,184.93 109.89,184.47 105.97,184.47
	104.52,183.02 104.52,180.26 105.97,178.82 112.23,178.82 112.23,180.77 107.37,180.77 106.92,181.22 106.92,182.07 107.37,182.52
	111.3,182.52 112.74,183.97 112.74,186.96 111.3,188.4 "></polygon>
<polygon class="st3" points="114.9,188.4 114.9,178.82 122.18,178.82 122.18,180.79 117.34,180.79 117.34,182.56 121.7,182.56
	121.7,184.4 117.34,184.4 117.34,186.42 122.18,186.42 122.18,188.4 "></polygon>
<polygon class="st3" points="125.64,188.4 124.2,186.96 124.2,180.26 125.64,178.82 130.57,178.82 132.02,180.26 132.02,182.2
	129.66,182.2 129.66,181.12 129.19,180.66 127.09,180.66 126.63,181.12 126.63,186.1 127.09,186.55 129.27,186.55 129.75,186.1
	129.75,185.01 132.1,185.01 132.1,186.96 130.66,188.4 "></polygon>
<polygon class="st3" points="135.32,188.4 133.91,186.96 133.91,178.82 136.34,178.82 136.34,186.1 136.79,186.55 139.43,186.55
	139.89,186.1 139.89,178.82 142.32,178.82 142.32,186.96 140.87,188.4 "></polygon>
<path class="st3" d="M144.41,188.4v-9.58h6.53l1.46,1.44v3.43l-1.09,1.09l1.46,3.61h-2.44l-1.26-3.26h-2.21v3.26H144.41z
	 M146.84,183.29h2.73l0.46-0.45v-1.72l-0.46-0.45h-2.73V183.29z"></path>
<polygon class="st3" points="154.27,188.4 154.27,186.57 155.33,186.57 155.31,180.65 154.27,180.65 154.27,178.82 158.69,178.82
	158.69,180.65 157.63,180.65 157.61,186.57 158.69,186.57 158.69,188.4 "></polygon>
<polygon class="st3" points="162.99,188.4 162.99,180.79 160.31,180.79 160.31,178.82 168.1,178.82 168.1,180.79 165.42,180.79
	165.42,188.4 "></polygon>
<polygon class="st3" points="171.86,188.4 171.86,185.05 170.9,184.21 168.66,178.82 171.46,178.82 172.84,183.23 173.3,183.23
	174.68,178.82 177.48,178.82 175.24,184.21 174.28,185.05 174.28,188.4 "></polygon>
</svg>
